# xmcd CD database file
#
# Track frame offsets:
#	150
#	24481
#	38320
#	54224
#	75649
#	95407
#	113293
#	128762
#	140958
#	154190
#	171048
#	193331
#
# Disc length: 2632 seconds
#
# Revision: 0
# Processed by: cddbd v1.4PL0 Copyright (c) Steve Scherf et al.
# Submitted via: CDex 1.50beta10
#
DISCID=8f0a460c
DTITLE=Sandra Hall - American Roots: Blues
DYEAR=2002
DGENRE=Blues
TTITLE0=I Need to Love You
TTITLE1=I Got the Will
TTITLE2=I Miss You So
TTITLE3=Stop Trying to Run My Life
TTITLE4=I Wanna See What You Say
TTITLE5=Pump Up Your Love
TTITLE6=Boogie Woogie Fever
TTITLE7=One Drop Will Do You
TTITLE8=Party at My House
TTITLE9=My Henhouse
TTITLE10=Use What You Got
TTITLE11=Thank You Jesus
EXTD=YEAR: 2002
EXTT0=
EXTT1=
EXTT2=
EXTT3=
EXTT4=
EXTT5=
EXTT6=
EXTT7=
EXTT8=
EXTT9=
EXTT10=
EXTT11=
PLAYORDER=
